<?xml version="1.0" encoding="utf-8"?>
<!-- Generator: Adobe Illustrator 24.1.3, SVG Export Plug-In . SVG Version: 6.00 Build 0)  -->
<svg version="1.1" id="Layer_1" xmlns="http://www.w3.org/2000/svg" xmlns:xlink="http://www.w3.org/1999/xlink" x="0px" y="0px"
	 viewBox="0 0 2720.5 579.2" style="enable-background:new 0 0 2720.5 579.2;" xml:space="preserve">
<style type="text/css">
	.st0{fill-rule:evenodd;clip-rule:evenodd;fill:url(#SVGID_1_);}
	.st1{fill:#14344F;}
	.st2{fill-rule:evenodd;clip-rule:evenodd;fill:#14344F;}
</style>
<linearGradient id="SVGID_1_" gradientUnits="userSpaceOnUse" x1="-62.6672" y1="548.9375" x2="357.9361" y2="969.541" gradientTransform="matrix(1 0 0 -1 0 984)">
	<stop  offset="0" style="stop-color:#0FDFFE"/>
	<stop  offset="0.1046" style="stop-color:#12D8FD"/>
	<stop  offset="0.2543" style="stop-color:#19C5FA"/>
	<stop  offset="0.4314" style="stop-color:#25A6F6"/>
	<stop  offset="0.6291" style="stop-color:#357BF0"/>
	<stop  offset="0.8415" style="stop-color:#4A45E8"/>
	<stop  offset="1" style="stop-color:#5B17E1"/>
</linearGradient>
<path class="st0" d="M36.1,413.8H125c45.4-0.1,82.5-37.1,82.6-82.5v-88.9c0-19.2,15.7-34.8,34.8-34.8h93.8
	c19.2,0,34.8,15.7,34.8,34.8v93.8c0,19.2-15.7,34.8-34.8,34.8h-88.8c-45.5,0-82.7,37.2-82.7,82.7c0,29.6,0,59.2,0,88.8
	c0,19.2-15.7,34.8-34.8,34.8H36.1c-19.2,0-34.8-15.7-34.8-34.8v-93.8C1.3,429.5,17,413.8,36.1,413.8L36.1,413.8z M36.1,1.3h93.8
	c19.2,0,34.8,15.7,34.8,34.8v93.8c0,19.2-15.7,34.8-34.8,34.8H36.1c-19.2,0-34.8-15.7-34.8-34.8V36.1C1.3,17,17,1.3,36.1,1.3
	L36.1,1.3z M36.1,207.6c-19.2,0-34.8,15.7-34.8,34.8v93.8C1.3,355.4,17,371,36.1,371h93.8c19.2,0,34.8-15.7,34.8-34.8
	c0-29.6,0-59.2,0-88.8c0-45.5,37.2-82.7,82.7-82.7h88.8c19.2,0,34.8-15.7,34.8-34.8V36.1c0-19.1-15.7-34.8-34.8-34.8h-93.8
	c-19.2,0-34.8,15.7-34.8,34.8v89c-0.1,45.4-37.2,82.4-82.6,82.5L36.1,207.6L36.1,207.6z"/>
<path class="st1" d="M2570.6,55.5c49.7,0,90.1,40.4,90.1,90.1v21.7c0,49.7-40.4,90.1-90.1,90.1H2481c-49.7,0-90.1-40.4-90.1-90.1
	v-21.7c0-49.7,40.4-90.1,90.1-90.1H2570.6 M2570.6,1.3H2481c-79.4,0-144.3,65-144.3,144.3v21.7c0,79.4,65,144.3,144.3,144.3h89.6
	c79.4,0,144.3-65,144.3-144.3v-21.7C2714.9,66.2,2649.9,1.3,2570.6,1.3L2570.6,1.3z"/>
<path class="st1" d="M1202,311.7c21.2,0,34.2-23.2,23.1-41.3l-75.4-123.2l-80.8-132.4c-10.9-18.1-37.2-18.1-48.1,0l-80.7,132.3
	l-75.5,123.3c-11.1,18.1,1.9,41.3,23.1,41.3l0,0c9.4,0,18.2-4.9,23.1-13l134-218.9l61.6,100.7h-67.9c-9.6,0-18.4,5-23.3,13.2l0,0
	c-10.8,18.1,2.3,41,23.3,41h101.1l39.2,64C1183.8,306.8,1192.5,311.7,1202,311.7L1202,311.7z"/>
<path class="st1" d="M1478.2,10.7l-113.6,131.6L1251,10.7c-5.2-6-12.6-9.4-20.5-9.4l0,0c-23.2,0-35.7,27.3-20.5,44.8l127.6,147.7
	v90.8c0,15,12.1,27.1,27.1,27.1l0,0c15,0,27.1-12.1,27.1-27.1v-90.7l127.6-147.7c15.2-17.6,2.7-44.8-20.5-44.8l0,0
	C1490.9,1.3,1483.4,4.7,1478.2,10.7z"/>
<path class="st1" d="M1460.6,426.9c29.3,0,53.1,23.8,53.1,53.1v12.7c0,29.3-23.8,53.1-53.1,53.1h-52.5c-29.3,0-53.1-23.8-53.1-53.1
	V480c0-29.3,23.8-53.1,53.1-53.1H1460.6 M1460.6,395.4h-52.5c-46.5,0-84.6,38.1-84.6,84.6v12.7c0,46.5,38.1,84.6,84.6,84.6h52.5
	c46.5,0,84.6-38.1,84.6-84.6V480C1545.2,433.5,1507.1,395.4,1460.6,395.4L1460.6,395.4z"/>
<path class="st1" d="M2350.1,577.3c12.4,0,20-13.6,13.6-24.2l-44.2-72.2l-47.3-77.6c-6.4-10.6-21.8-10.6-28.2,0l-47.3,77.5
	l-44.2,72.3c-6.5,10.6,1.1,24.2,13.6,24.2l0,0c5.5,0,10.7-2.9,13.6-7.6l78.5-128.3l36.1,59h-39.8c-5.6,0-10.8,2.9-13.7,7.8l0,0
	c-6.3,10.6,1.3,24,13.7,24h59.2l22.9,37.5C2339.4,574.4,2344.6,577.3,2350.1,577.3L2350.1,577.3z"/>
<path class="st1" d="M656,471.5c-8.8,0-15.9,7.1-15.9,15.9l0,0c0,8.8,7.1,15.9,15.9,15.9h45.5v42.3h-80.8
	c-29.7,0-53.8-24.1-53.8-53.8V481c0-29.7,24.1-53.8,53.8-53.8h96.7c8.8,0,15.9-7.1,15.9-15.9l0,0c0-8.8-7.1-15.9-15.9-15.9h-96.7
	c-47.1,0-85.6,38.5-85.6,85.6v10.8c0,47.1,38.5,85.6,85.6,85.6h80.8H713c11.2,0,20.3-9.1,20.3-20.3v-11.5v-42.3v-11.5
	c0-11.2-9.1-20.3-20.3-20.3L656,471.5L656,471.5z"/>
<path class="st2" d="M983.1,545.5V411.3c0-8.8-7.1-15.9-15.9-15.9l0,0c-8.8,0-15.9,7.1-15.9,15.9v134.2v11.4
	c0,11.3,9.1,20.4,20.4,20.4h11.4h106.5c8.8,0,15.9-7.1,15.9-15.9l0,0c0-8.8-7.1-15.9-15.9-15.9H983.1z"/>
<path class="st2" d="M2592.5,545.5V411.3c0-8.8-7.1-15.9-15.9-15.9l0,0c-8.8,0-15.9,7.1-15.9,15.9v134.2v11.1
	c0,11.4,9.3,20.7,20.7,20.7h11.1H2699c8.8,0,15.9-7.1,15.9-15.9l0,0c0-8.8-7.1-15.9-15.9-15.9L2592.5,545.5L2592.5,545.5z"/>
<path class="st1" d="M1763.2,556.6c0,11.4,9.2,20.6,20.7,20.6h1.8l0,0h116.2c29.4,0,53.4-24,53.4-53.4l0,0
	c0-14.6-5.9-27.9-15.5-37.5c10.9-11,17.1-26.6,15.2-43.5c-3-27.2-26.6-47.4-53.9-47.4H1795h-3.4h-8c-11.3,0-20.4,9.1-20.4,20.4
	L1763.2,556.6z M1901.3,545.5H1795v-43.3h106.9c0,0,0,0,0.1,0c14.2,0,25.7,14.5,20.2,29.2C1919,540,1910.5,545.5,1901.3,545.5z
	 M1902,470.5C1901.9,470.5,1901.9,470.5,1902,470.5h-107v-43.3h106.3c9.2,0,17.7,5.5,20.9,14.2C1927.6,456,1916.1,470.4,1902,470.5z
	"/>
<path class="st2" d="M762,1.3h-98.2h-90H570c-19.2,0-34.8,15.7-34.8,34.8v0.1V130v154.6c0,15,12.1,27.1,27.1,27.1l0,0
	c15,0,27.1-12.1,27.1-27.1V55.5H762c28.2,0,51.1,22.9,51.1,51.1v13.5c0,28.2-22.9,51.1-51.1,51.1H656c-15,0-27.1,12.1-27.1,27.1l0,0
	c0,15,12.1,27.1,27.1,27.1h106c57.9,0,105.3-47.4,105.3-105.3v-13.5C867.4,48.7,819.9,1.3,762,1.3z"/>
<path class="st2" d="M1816,1.3h-98.2h-90h-3.8c-19.2,0-34.8,15.7-34.8,34.8v0.1V130v154.6c0,15,12.1,27.1,27.1,27.1l0,0
	c15,0,27.1-12.1,27.1-27.1V55.5H1816c28.2,0,51.1,22.9,51.1,51.1v13.5c0,28.2-22.9,51.1-51.1,51.1h-106c-15,0-27.1,12.1-27.1,27.1
	l0,0c0,15,12.1,27.1,27.1,27.1h106c57.9,0,105.3-47.4,105.3-105.3v-13.5C1921.4,48.7,1874,1.3,1816,1.3z"/>
<path class="st2" d="M2291.8,120.1v-13.5c0-57.9-47.4-105.3-105.3-105.3h-98.2h-89.2h-4.7c-19.2,0-34.8,15.7-34.8,34.8v93.8l0,0
	v154.6c0,15,12.1,27.1,27.1,27.1l0,0c15,0,27.1-12.1,27.1-27.1v-229h172.6c28.2,0,51.1,22.9,51.1,51.1v13.5
	c0,28.2-22.9,51.1-51.1,51.1h-106c-15,0-27.1,12.1-27.1,27.1l0,0c0,15,12.1,27.1,27.1,27.1h83l77.1,78.2c5.1,5.2,12.1,8.1,19.3,8.1
	l0,0c24.1,0,36.2-29,19.3-46.2l-49-49.7C2266.4,199.2,2291.8,162.5,2291.8,120.1z"/>
</svg>
